<?xml version="1.0" encoding="utf-8"?>
<!-- Generator: Adobe Illustrator 24.1.1, SVG Export Plug-In . SVG Version: 6.00 Build 0)  -->
<svg version="1.2" baseProfile="tiny" id="IED" xmlns="http://www.w3.org/2000/svg" xmlns:xlink="http://www.w3.org/1999/xlink"
	 x="0px" y="0px" viewBox="0 0 100 100" xml:space="preserve">
<path fill="#0081C6" d="M100,100H0V0h100V100z"/>
<path fill="#1D1D1B" d="M95,95H5V5H95L95,95L95,95z"/>
<g>
	<path fill="#FFFFFF" d="M16.5,25.4h10.6c2.8,0,5.1,0.3,7.1,0.9c2,0.6,3.8,1.7,5.4,3.3c4.2,4.1,6.3,10.4,6.3,18.8
		c0,2.8-0.2,5.3-0.6,7.6c-0.4,2.3-1.1,4.4-1.9,6.2c-0.9,1.8-2,3.5-3.4,4.9c-1.1,1.1-2.3,2-3.5,2.7c-1.3,0.7-2.6,1.2-4.1,1.4
		c-1.5,0.3-3.1,0.4-5,0.4H16.7c-1.5,0-2.6-0.3-3.3-0.8c-0.8-0.5-1.3-1.2-1.5-2.2c-0.2-0.9-0.3-2.1-0.3-3.7v-34c0-2,0.4-3.5,1.2-4.4
		C13.5,25.9,14.8,25.4,16.5,25.4z M19.7,32.8v31.5h6.2c1.3,0,2.4-0.1,3.2-0.1c0.8-0.1,1.6-0.3,2.4-0.6c0.8-0.3,1.5-0.8,2.1-1.4
		c2.7-2.7,4.1-7.2,4.1-13.7c0-4.6-0.6-8-1.8-10.3s-2.7-3.7-4.4-4.3c-1.8-0.6-3.9-0.9-6.4-0.9L19.7,32.8L19.7,32.8z"/>
	<path fill="#FFFFFF" d="M70.7,24.6c4.2,0,7.7,1,10.7,2.9s5.2,4.7,6.8,8.3c1.5,3.6,2.3,7.8,2.3,12.7c0,3.6-0.4,6.8-1.3,9.8
		c-0.8,2.9-2.1,5.5-3.8,7.6c-1.7,2.1-3.8,3.8-6.2,4.9c-2.5,1.1-5.2,1.7-8.4,1.7c-3.1,0-6-0.6-8.5-1.8c-2.5-1.2-4.6-2.8-6.2-4.9
		c-1.7-2.1-2.9-4.7-3.8-7.7c-0.9-3-1.3-6.2-1.3-9.7c0-3.6,0.4-6.8,1.3-9.8c0.9-3,2.2-5.5,3.8-7.6c1.7-2.1,3.7-3.7,6.2-4.8
		C64.9,25.2,67.7,24.6,70.7,24.6z M82.3,48.5c0-3.4-0.5-6.3-1.4-8.8c-1-2.5-2.3-4.4-4.1-5.7c-1.8-1.3-3.8-1.9-6.1-1.9
		c-1.6,0-3.1,0.4-4.5,1.1c-1.4,0.7-2.6,1.7-3.6,3.1c-1,1.3-1.8,3.1-2.4,5.2c-0.6,2.1-0.9,4.4-0.9,7.1s0.3,5,0.9,7.1
		c0.6,2.1,1.4,3.9,2.5,5.3c1.1,1.4,2.3,2.4,3.6,3.2c1.4,0.7,2.9,1,4.5,1c2.1,0,4-0.6,5.7-1.8c1.7-1.2,3.1-3.1,4.2-5.6
		C81.8,55.2,82.3,52.1,82.3,48.5z"/>
</g>
</svg>
