<?xml version="1.0" encoding="utf-8"?>
<!-- Generator: Adobe Illustrator 24.0.2, SVG Export Plug-In . SVG Version: 6.00 Build 0)  -->
<svg version="1.1" id="IED" xmlns="http://www.w3.org/2000/svg" xmlns:xlink="http://www.w3.org/1999/xlink" x="0px" y="0px"
	 viewBox="0 0 100 100" style="enable-background:new 0 0 100 100;" xml:space="preserve">
<style type="text/css">
	.st0{fill:#0081C6;}
	.st1{fill:#1D1D1B;}
	.st2{fill:#FFFFFF;}
	.st3{fill:#FFFFFF;stroke:#FFFFFF;stroke-width:2;stroke-miterlimit:10;}
	.st4{font-family:'MyriadPro-Regular';}
	.st5{font-size:67px;}
</style>
<path class="st0" d="M100,100H0V0h100V100z"/>
<path class="st1" d="M95,95H5V5h90V95L95,95z"/>
<g>
	<path class="st2" d="M18.5,25.4h10.6c2.8,0,5.1,0.3,7.1,0.9s3.8,1.7,5.4,3.3c4.2,4.1,6.3,10.4,6.3,18.8c0,2.8-0.2,5.3-0.6,7.6
		c-0.4,2.3-1.1,4.4-1.9,6.2c-0.9,1.8-2,3.5-3.4,4.9c-1.1,1.1-2.3,2-3.5,2.7c-1.3,0.7-2.6,1.2-4.1,1.4c-1.5,0.3-3.1,0.4-5,0.4H18.7
		c-1.5,0-2.6-0.3-3.3-0.8c-0.8-0.5-1.3-1.2-1.5-2.2c-0.2-0.9-0.3-2.1-0.3-3.7v-34c0-2,0.4-3.5,1.2-4.4
		C15.5,25.9,16.8,25.4,18.5,25.4z M21.7,32.8v31.5h6.2c1.3,0,2.4-0.1,3.2-0.1c0.8-0.1,1.6-0.3,2.4-0.6c0.8-0.3,1.5-0.8,2.1-1.4
		c2.7-2.7,4.1-7.2,4.1-13.7c0-4.6-0.6-8-1.8-10.3s-2.7-3.7-4.4-4.3c-1.8-0.6-3.9-0.9-6.4-0.9L21.7,32.8L21.7,32.8z"/>
</g>
<text transform="matrix(1 0 0 1 53.3399 71.6006)" class="st3 st4 st5">P</text>
</svg>
