<?xml version="1.0" encoding="utf-8"?>
<!-- Generator: Adobe Illustrator 24.1.1, SVG Export Plug-In . SVG Version: 6.00 Build 0)  -->
<svg version="1.1" id="IED" xmlns="http://www.w3.org/2000/svg" xmlns:xlink="http://www.w3.org/1999/xlink" x="0px" y="0px"
	 viewBox="0 0 100 100" style="enable-background:new 0 0 100 100;" xml:space="preserve">
<style type="text/css">
	.st0{fill:#0081C6;}
	.st1{fill:#1D1D1B;}
	.st2{fill:#FFFFFF;}
</style>
<path class="st0" d="M100,100H0V0h100V100z"/>
<path class="st1" d="M95,95H5V5H95L95,95L95,95z"/>
<g>
	<path class="st2" d="M17.5,25.9h11.3c2.9,0,5.4,0.3,7.5,0.9c2.1,0.6,4,1.7,5.7,3.3c4.4,4.1,6.7,10.3,6.7,18.7
		c0,2.8-0.2,5.3-0.7,7.6S47,60.6,46,62.4c-0.9,1.8-2.1,3.5-3.6,4.9c-1.2,1.1-2.4,2-3.8,2.7c-1.3,0.7-2.8,1.1-4.4,1.4
		S31,71.8,29,71.8H17.7c-1.6,0-2.7-0.3-3.6-0.8c-0.8-0.5-1.3-1.2-1.6-2.2s-0.4-2.1-0.4-3.6V31.6c0-2,0.4-3.5,1.3-4.3
		C14.3,26.3,15.7,25.9,17.5,25.9z M20.9,33.2v31.2h6.5c1.4,0,2.6-0.1,3.4-0.1s1.7-0.3,2.5-0.6c0.9-0.3,1.6-0.8,2.3-1.4
		c2.9-2.6,4.3-7.2,4.3-13.6c0-4.5-0.6-7.9-1.9-10.2c-1.3-2.2-2.8-3.7-4.7-4.3c-1.9-0.6-4.1-0.9-6.8-0.9L20.9,33.2L20.9,33.2z"/>
	<path class="st2" d="M88.8,58c0,2.8-0.7,5.3-2,7.5c-1.3,2.2-3.3,3.9-5.8,5.2c-2.6,1.3-5.6,1.9-9.1,1.9c-4.2,0-7.7-0.9-10.4-2.6
		c-1.9-1.2-3.5-2.9-4.7-4.9c-1.2-2-1.8-4.1-1.8-6c0-1.1,0.4-2.1,1.1-2.9c0.7-0.8,1.6-1.2,2.8-1.2c0.9,0,1.7,0.3,2.3,0.9
		c0.6,0.6,1.2,1.6,1.6,2.8c0.5,1.5,1.1,2.7,1.8,3.7c0.6,1,1.5,1.8,2.7,2.4c1.2,0.6,2.6,1,4.5,1c2.6,0,4.6-0.6,6.3-1.9
		c1.6-1.3,2.4-2.9,2.4-4.8c0-1.5-0.4-2.8-1.3-3.7c-0.9-1-2-1.7-3.4-2.2s-3.2-1-5.5-1.6c-3.1-0.8-5.6-1.7-7.7-2.7
		c-2.1-1-3.7-2.4-4.9-4.2c-1.2-1.8-1.8-4-1.8-6.7c0-2.5,0.6-4.8,1.9-6.7s3.1-3.5,5.6-4.5c2.4-1.1,5.3-1.6,8.6-1.6
		c2.6,0,4.9,0.4,6.8,1.1c1.9,0.7,3.5,1.6,4.8,2.8c1.3,1.2,2.2,2.4,2.8,3.7c0.6,1.3,0.9,2.5,0.9,3.7c0,1.1-0.4,2.1-1.1,3
		c-0.7,0.9-1.6,1.3-2.7,1.3c-1,0-1.7-0.3-2.3-0.8c-0.5-0.5-1.1-1.4-1.7-2.6c-0.8-1.7-1.7-3.1-2.8-4.1c-1.1-1-2.8-1.5-5.2-1.5
		c-2.2,0-4,0.5-5.4,1.6c-1.4,1.1-2.1,2.3-2.1,3.8c0,0.9,0.2,1.7,0.7,2.4c0.5,0.7,1.1,1.2,1.9,1.7c0.8,0.5,1.6,0.9,2.5,1.1
		c0.8,0.3,2.2,0.7,4.1,1.2c2.4,0.6,4.6,1.3,6.5,2c2,0.7,3.6,1.6,5,2.7c1.4,1,2.4,2.4,3.2,4C88.4,53.7,88.8,55.7,88.8,58z"/>
</g>
</svg>
