<?xml version="1.0" encoding="utf-8"?>
<!-- Generator: Adobe Illustrator 24.1.1, SVG Export Plug-In . SVG Version: 6.00 Build 0)  -->
<svg version="1.2" baseProfile="tiny" id="IED" xmlns="http://www.w3.org/2000/svg" xmlns:xlink="http://www.w3.org/1999/xlink"
	 x="0px" y="0px" viewBox="0 0 500 500" xml:space="preserve">
<path fill="#0081C6" d="M500,500H0V0h500V500z"/>
<path fill="#1D1D1B" d="M475.1,475.1H24.9V24.9h450.4v450.3H475.1z"/>
<g>
	<path fill="#FFFFFF" d="M31.3,216.7h43V72.1h-43V52h108.1V72h-43v144.6h43v19.9H31.3V216.7z"/>
	<path fill="#FFFFFF" d="M194.1,52h107V72h-84.9v57.7H288v19.9h-71.7v66.9h87.5v19.9H194.1V52z"/>
	<path fill="#FFFFFF" d="M344.9,52h42.6c52,0,80.1,33,80.1,91.4c0,58.8-28.2,93.1-79,93.1h-43.8L344.9,52L344.9,52z M386,217.2
		c39.2,0,58.8-27,58.8-73.7c0-46.5-19.5-72-58.8-72h-19v145.7H386z"/>
</g>
<path fill="#0081C6" d="M350.2,265.2c-7.8,48.5-48.8,85.4-98,85.4s-90.2-37-98-85.4H48c0.6,8,1.3,15.9,2.9,23.6l29,4.8l13.4,2.1
	c3.4,13.1,8.6,25.9,14.6,37.4l-8,11l-17.4,25c4.8,7.4,10.5,15.2,16.5,21.7c4.9,5.7,10.3,11.2,15.7,16.7c6.5,6.2,13.4,11.9,20.5,17.2
	l23.7-18.2l10.5-8.3c11.6,7.1,24.5,13.1,37.9,16.9l2,14l4.5,30.3c8.8,1.5,17,3,26.2,3.3c4.3,0.3,8.2,0.6,12.3,0.6
	c4.3,0,8.2-0.3,12.5-0.6c8.8-0.6,17.6-1.5,26.2-3.3l4.5-30.3l2-14c12.7-3.9,25.4-9.2,37-16l10.5,8.3l23.7,18.2
	c7.1-5.1,14.2-11,20.8-16.9c6-5.3,11.6-11.6,16.8-17.8c6-7.1,11.2-14.3,16.2-22l-17.4-24.6l-8-11c6-11.2,10.8-23.7,14.6-36.9l13.1-2
	l29-4.8c1.2-8.2,2.6-16.2,2.9-24.2H350.2V265.2z"/>
</svg>
