<?xml version="1.0" encoding="utf-8"?>
<!-- Generator: Adobe Illustrator 24.1.1, SVG Export Plug-In . SVG Version: 6.00 Build 0)  -->
<svg version="1.2" baseProfile="tiny" id="Слой_1"
	 xmlns="http://www.w3.org/2000/svg" xmlns:xlink="http://www.w3.org/1999/xlink" x="0px" y="0px" viewBox="0 0 500 500"
	 xml:space="preserve">
<path fill="#0081C6" d="M500,500H0V0h500V500z"/>
<path fill="#1D1D1B" d="M475.1,475.1H24.9V24.9h450.4L475.1,475.1L475.1,475.1z"/>
<g>
	<path fill="#FFFFFF" d="M97.4,111.6v121.5h21.8v23.2H45.1v-23.2h21.8V111.6H45.1V88.3h74v23.2L97.4,111.6L97.4,111.6z"/>
	<path fill="#FFFFFF" d="M191.8,111.6v47.7h63.1v23.2h-63.1v50.1h68.5v23.6h-99V88.3h99v23.2L191.8,111.6L191.8,111.6z"/>
	<path fill="#FFFFFF" d="M408.8,106.3c11.8,12,17.6,28.4,17.6,49.2v29.8c0,22.2-6.5,39.6-19.5,52.1c-13,12.6-31.5,18.8-55.5,18.8
		h-49.4V88.3h55.4C379.9,88.3,397.1,94.3,408.8,106.3z M396,154.8c0-13.9-3.3-24.6-10-32.1s-16.7-11.1-29.9-11.1h-23.5v121.5h19.2
		c14.8,0,26-3.9,33.2-11.7c7.4-7.8,11-19.7,11-35.5V154.8z"/>
</g>
<g>
	<path fill="#FFFFFF" d="M51.7,387c-8.9-9.7-13.5-22.6-13.5-38.8v-9.3c0-16.3,4.4-29.3,13.4-38.9c8.9-9.6,21.4-14.4,37.6-14.4
		c7.4,0,14.1,1.1,20.1,3.5c6,2.4,11.5,6.1,16.8,11l-12.4,13.6c-3.4-3-7-5.3-10.7-6.7c-3.7-1.4-7.8-2-12.7-2
		c-8.3,0-14.8,2.8-19.4,8.5c-4.5,5.6-6.7,13.9-6.7,25v10.2c0,11.1,2.2,19.4,6.6,25.1c4.4,5.7,10.8,8.5,19.4,8.5
		c4.7,0,8.8-0.8,12.5-2.3c3.8-1.5,7.7-3.8,11.9-6.7l10.7,15.2c-4.8,3.9-10.3,7.1-16.8,9.5c-6.5,2.4-13,3.7-19.6,3.7
		C73,401.5,60.8,396.7,51.7,387z"/>
	<path fill="#FFFFFF" d="M220.6,292.2c8,4.4,14,10.6,18,18.4c4,7.8,6,16.9,6,27.1V349c0,15.9-4.7,28.7-13.8,38.1
		c-9.2,9.6-22.2,14.3-38.8,14.3c-16.5,0-29.4-4.8-38.5-14.3c-9.1-9.6-13.6-22.2-13.6-38.1v-11.2c0-10.2,2-19.3,6-27.1
		c3.9-7.8,9.8-14,17.6-18.4c7.8-4.4,17.3-6.7,28.4-6.7C203.2,285.6,212.7,287.8,220.6,292.2z M172.5,313.3
		c-4.4,5.4-6.7,13.5-6.7,24.1V349c0,11,2.2,19.2,6.6,24.7c4.4,5.6,10.9,8.5,19.6,8.5c8.7,0,15.3-2.8,19.9-8.5
		c4.7-5.6,6.9-13.9,6.9-24.7v-11.6c0-10.5-2.3-18.6-6.9-24.1c-4.7-5.6-11.3-8.3-19.9-8.3C183.5,305.1,177,307.8,172.5,313.3z"/>
	<path fill="#FFFFFF" d="M355.6,295.3c6.7,6.6,10.2,15.5,10.2,27.1v76.4h-26v-74.2c0-13-5.8-19.4-17.4-19.4c-9.4,0-17.5,4.5-24,13.6
		v80.1h-26V288.5h22.2l1.7,11.2c8-9.3,19-14.1,33.1-14.1C340.2,285.6,348.9,288.9,355.6,295.3z"/>
	<path fill="#FFFFFF" d="M433.9,265.2c-2.3,2.1-3.6,5.7-3.6,10.7v12.6H457v19.1h-26.6v91.3h-26v-91.3h-14.7v-19.1h14.8v-10.6
		c0-11.7,3.2-20.6,9.6-26.5c6.4-5.9,15.7-8.8,27.9-8.8c8,0,14.8,0.9,20.5,2.7l-2.7,18.3c-4.9-1.1-9.7-1.6-14.2-1.6
		C440.2,261.9,436.4,263,433.9,265.2z"/>
</g>
</svg>
