<?xml version="1.0" encoding="utf-8"?>
<!-- Generator: Adobe Illustrator 24.1.1, SVG Export Plug-In . SVG Version: 6.00 Build 0)  -->
<svg version="1.1" id="IED" xmlns="http://www.w3.org/2000/svg" xmlns:xlink="http://www.w3.org/1999/xlink" x="0px" y="0px"
	 viewBox="0 0 100 100" style="enable-background:new 0 0 100 100;" xml:space="preserve">
<style type="text/css">
	.st0{fill:#0081C6;}
	.st1{fill:#1D1D1B;}
	.st2{fill:#FFFFFF;}
</style>
<path class="st0" d="M100,100H0V0h100V100z"/>
<path class="st1" d="M95,95H5V5H95L95,95L95,95z"/>
<g>
	<path class="st2" d="M9.6,66.5V29c0-1.9,0.3-3.4,1-4.4c0.7-1,1.5-1.5,2.5-1.5c1.1,0,1.9,0.5,2.6,1.4c0.7,1,1,2.4,1,4.4v37.4
		c0,2-0.3,3.4-1,4.4c-0.7,1-1.5,1.5-2.6,1.5c-1,0-1.9-0.5-2.5-1.5C9.9,69.9,9.6,68.4,9.6,66.5z"/>
	<path class="st2" d="M49.5,31.4H33.4v11.7h14.8c1.1,0,1.9,0.3,2.5,1c0.5,0.7,0.8,1.5,0.8,2.6c0,1.1-0.3,2-0.8,2.7
		c-0.5,0.7-1.3,1-2.5,1H33.4v13.5H50c1.1,0,2,0.4,2.5,1.1c0.6,0.7,0.9,1.6,0.9,2.8c0,1.1-0.3,2-0.9,2.7c-0.6,0.7-1.4,1.1-2.5,1.1
		H30.6c-1.5,0-2.7-0.5-3.4-1.4c-0.7-0.9-1-2.4-1-4.5V29.9c0-1.4,0.1-2.5,0.5-3.4c0.3-0.9,0.8-1.5,1.4-1.9c0.7-0.4,1.5-0.6,2.5-0.6
		h18.9c1.1,0,2,0.3,2.5,1c0.6,0.7,0.8,1.6,0.8,2.7c0,1.1-0.3,2-0.8,2.7C51.5,31.1,50.6,31.4,49.5,31.4z"/>
	<path class="st2" d="M65,24h9.3c2.4,0,4.5,0.3,6.2,0.9c1.7,0.6,3.3,1.7,4.7,3.4c3.7,4.2,5.5,10.7,5.5,19.3c0,2.9-0.2,5.5-0.6,7.8
		c-0.4,2.3-0.9,4.5-1.7,6.4c-0.8,1.9-1.8,3.6-3,5.1c-1,1.1-2,2.1-3.1,2.8c-1.1,0.7-2.3,1.2-3.6,1.5c-1.3,0.3-2.7,0.4-4.4,0.4h-9.3
		c-1.3,0-2.3-0.3-2.9-0.8c-0.7-0.5-1.1-1.3-1.3-2.2c-0.2-1-0.3-2.2-0.3-3.7V29.9c0-2.1,0.3-3.6,1-4.5C62.3,24.5,63.5,24,65,24z
		 M67.8,31.6v32.2h5.4c1.2,0,2.1-0.1,2.8-0.1c0.7-0.1,1.4-0.3,2.1-0.7c0.7-0.4,1.3-0.8,1.9-1.5c2.4-2.7,3.6-7.4,3.6-14.1
		c0-4.7-0.5-8.2-1.6-10.5c-1.1-2.3-2.4-3.8-3.9-4.5c-1.5-0.6-3.4-1-5.6-1L67.8,31.6L67.8,31.6z"/>
</g>
</svg>
