<?xml version="1.0" encoding="utf-8"?>
<!-- Generator: Adobe Illustrator 24.1.1, SVG Export Plug-In . SVG Version: 6.00 Build 0)  -->
<svg version="1.1" id="IED" xmlns="http://www.w3.org/2000/svg" xmlns:xlink="http://www.w3.org/1999/xlink" x="0px" y="0px"
	 viewBox="0 0 100 100" style="enable-background:new 0 0 100 100;" xml:space="preserve">
<style type="text/css">
	.st0{fill:#0081C6;}
	.st1{fill:#1D1D1B;}
	.st2{fill:#FFFFFF;}
</style>
<path class="st0" d="M100,100H0V0h100V100z"/>
<path class="st1" d="M95,95H5V5H95L95,95L95,95z"/>
<g>
	<path class="st2" d="M21.3,30.7v33.4h18.3c1.5,0,2.6,0.4,3.4,1.1c0.8,0.7,1.2,1.6,1.2,2.8c0,1.1-0.4,2-1.2,2.8
		c-0.8,0.7-1.9,1.1-3.4,1.1H17.7c-2,0-3.4-0.5-4.2-1.3c-0.9-0.9-1.3-2.3-1.3-4.3V30.7c0-1.9,0.4-3.3,1.2-4.2
		c0.8-0.9,1.9-1.4,3.2-1.4c1.3,0,2.5,0.5,3.3,1.4C20.8,27.4,21.3,28.8,21.3,30.7z"/>
	<path class="st2" d="M61.8,30.7l17.4,27.1V30.4c0-1.8,0.4-3.1,1.1-4c0.7-0.9,1.7-1.3,3-1.3c1.3,0,2.3,0.5,3.1,1.3
		c0.8,0.9,1.1,2.2,1.1,4v36.1c0,4-1.6,6-4.9,6c-0.8,0-1.5-0.1-2.2-0.4c-0.6-0.3-1.3-0.6-1.8-1.1c-0.6-0.5-1.1-1.1-1.6-1.8
		c-0.5-0.7-1-1.4-1.5-2.1L58.6,40.3v26.9c0,1.7-0.4,3.1-1.2,4c-0.8,0.9-1.8,1.3-3,1.3c-1.3,0-2.3-0.5-3.1-1.4
		c-0.8-0.9-1.2-2.2-1.2-4V31.8c0-1.5,0.2-2.7,0.5-3.5c0.4-0.9,1-1.7,1.9-2.3c0.9-0.6,1.9-0.9,2.9-0.9c0.8,0,1.5,0.1,2.1,0.4
		s1.1,0.6,1.5,1.1s0.9,1.1,1.3,1.8C60.8,29.1,61.3,29.9,61.8,30.7z"/>
</g>
</svg>
