<?xml version="1.0" encoding="utf-8"?>
<!-- Generator: Adobe Illustrator 24.1.1, SVG Export Plug-In . SVG Version: 6.00 Build 0)  -->
<svg version="1.2" baseProfile="tiny" id="IED" xmlns="http://www.w3.org/2000/svg" xmlns:xlink="http://www.w3.org/1999/xlink"
	 x="0px" y="0px" viewBox="0 0 500 500" xml:space="preserve">
<path fill="#0081C6" d="M500,500H0V0h500V500z"/>
<path fill="#1D1D1B" d="M475.1,475.1H24.9V24.9h450.4L475.1,475.1L475.1,475.1z"/>
<path fill="#0081C6" d="M250.2,39.5c-3.7,0-7.5,0.3-11.4,0.6c-8.9,0.6-17.9,1.5-26.5,3.3l-4.7,29.9l-2.1,13.8
	c-12.7,3.5-25.1,8.8-36.3,15l-10.7-8.2L134.4,76c-7.2,4.9-14.7,10.9-21.1,17c-5.5,5.1-10.9,10.6-16.2,16.2
	c-6,6.7-11.5,13.8-16.7,21.1l17.6,24.4l8.1,10.9c-6.9,12-12.7,25.3-16.4,39l-13.6,2l-29.4,4.7c-1.5,9.1-2.9,17.6-3.2,27
	c-0.2,4.4-0.6,8.5-0.6,12.6c0,4.4,0.2,8.5,0.6,12.9c0.6,9.1,1.5,18.2,3.2,27l29.4,4.7l13.6,2c3.8,13.1,8.9,26.1,15.6,38.1l-8.1,10.9
	l-17.6,24.2c4.9,7.3,10.7,14.6,16.4,21.5c5.1,6.2,11.3,12,17.3,17.3c6.9,6.2,13.8,11.5,21.3,16.7l23.9-17.9l10.7-8.2
	c10.9,6.2,23,11.1,35.8,15l2,13.5l4.7,29.9c8.9,1.5,17.6,2.9,26.5,3.2c3.8,0.3,7.8,0.6,11.5,0.6c0.1,0,0.4,0,0.5,0V39.5H250.2z"/>
<g>
	<path fill="#FFFFFF" d="M322.8,51.1v102.3h24.6V173h-83.8v-19.6h24.6V51.1h-24.6V31.6h83.8v19.6H322.8z"/>
</g>
<g>
	<path fill="#FFFFFF" d="M263.6,325.3h72.3c16.3,0,28.8,0.9,37.3,2.8c11.5,2.5,21.3,6.9,29.5,13.3c8.2,6.4,14.5,14.1,18.8,23.5
		c4.3,9.2,6.4,20.6,6.4,34.2c0,11.9-2,22.2-6,30.8c-4.9,10.5-11.9,19.1-21,25.5c-6.9,4.9-16.2,8.8-27.8,11.5c-8.7,2-20.5,3-35,3
		h-74.5V325.3H263.6z M303.2,349.6v95.8h29.5c11,0,19-0.5,23.9-1.4c6.4-1.1,11.8-3.2,15.9-6.1c4.3-2.8,7.7-7.4,10.4-14
		c2.7-6.4,4-15.3,4-26.5s-1.3-19.8-4-25.8c-2.7-5.9-6.4-10.6-11.3-14c-4.8-3.4-10.9-5.7-18.4-6.8c-5.5-0.9-16.3-1.4-32.5-1.4h-17.6
		V349.6z"/>
</g>
<g>
	<path fill="#FFFFFF" d="M381.7,200.1V239H451V258h-69.2v40.9h75.1v19.3H348.3v-137h108.6v18.9H381.7z"/>
</g>
<path fill="#0081C6" d="M250.2,181.2v137.5c35.9-1.1,64.7-31.6,64.7-68.8S286.2,182.3,250.2,181.2z"/>
<path fill="#1D1D1B" d="M250.2,194.6v-13.4c-35.9,1.1-64.7,31.6-64.7,68.8s28.8,67.7,64.7,68.8v-13.4c29.7,0,53.8-24.7,53.8-55.4
	S279.9,194.6,250.2,194.6z"/>
</svg>
