<?xml version="1.0" encoding="utf-8"?>
<!-- Generator: Adobe Illustrator 24.1.1, SVG Export Plug-In . SVG Version: 6.00 Build 0)  -->
<svg version="1.1" id="IED" xmlns="http://www.w3.org/2000/svg" xmlns:xlink="http://www.w3.org/1999/xlink" x="0px" y="0px"
	 viewBox="0 0 100 100" style="enable-background:new 0 0 100 100;" xml:space="preserve">
<style type="text/css">
	.st0{fill:#0081C6;}
	.st1{fill:#1D1D1B;}
	.st2{fill:#FFFFFF;}
</style>
<path class="st0" d="M100,100H0V0h100V100z"/>
<path class="st1" d="M95,95H5V5H95L95,95L95,95z"/>
<g>
	<path class="st2" d="M21.3,30.7v33.4h18.3c1.5,0,2.6,0.4,3.4,1.1c0.8,0.7,1.2,1.6,1.2,2.8c0,1.1-0.4,2-1.2,2.8
		c-0.8,0.7-1.9,1.1-3.4,1.1H17.7c-2,0-3.4-0.5-4.2-1.3c-0.9-0.9-1.3-2.3-1.3-4.3V30.7c0-1.9,0.4-3.3,1.2-4.2
		c0.8-0.9,1.9-1.4,3.2-1.4c1.3,0,2.5,0.5,3.3,1.4C20.8,27.4,21.3,28.8,21.3,30.7z"/>
	<path class="st2" d="M55.6,25.9h11.8c3.1,0,5.7,0.3,7.9,0.9c2.2,0.6,4.2,1.7,6,3.3c4.6,4.1,7,10.3,7,18.7c0,2.8-0.2,5.3-0.7,7.6
		c-0.5,2.3-1.2,4.3-2.2,6.2c-1,1.8-2.2,3.5-3.8,4.9c-1.2,1.1-2.5,2-3.9,2.7c-1.4,0.7-2.9,1.1-4.6,1.4s-3.5,0.4-5.5,0.4H55.8
		c-1.6,0-2.9-0.3-3.7-0.8c-0.8-0.5-1.4-1.2-1.6-2.2S50,66.7,50,65.2V31.6c0-2,0.4-3.5,1.3-4.3C52.3,26.3,53.7,25.9,55.6,25.9z
		 M59.1,33.2v31.2H66c1.5,0,2.7-0.1,3.5-0.1c0.9-0.1,1.7-0.3,2.6-0.6c0.9-0.3,1.7-0.8,2.4-1.4c3-2.6,4.5-7.2,4.5-13.6
		c0-4.5-0.7-7.9-2-10.2c-1.3-2.2-3-3.7-4.9-4.3c-1.9-0.6-4.3-0.9-7.1-0.9L59.1,33.2L59.1,33.2z"/>
</g>
</svg>
